<svg xmlns="http://www.w3.org/2000/svg" shape-rendering="geometricPrecision" text-rendering="geometricPrecision" image-rendering="optimizeQuality" fill-rule="evenodd" clip-rule="evenodd" viewBox="0 0 512 512"><path fill="#FF343F" fill-rule="nonzero" d="M256.001 0c70.689 0 134.688 28.656 181.016 74.982C483.343 121.309 512 185.31 512 255.999s-28.657 134.69-74.983 181.016C390.689 483.343 326.69 512 256.001 512s-134.69-28.657-181.019-74.985C28.656 390.689 0 326.688 0 255.999s28.656-134.69 74.982-181.017C121.311 28.656 185.312 0 256.001 0z"/><path fill="#D2DADA" d="M256.001 25.385c127.363 0 230.613 103.249 230.613 230.614 0 127.365-103.25 230.615-230.613 230.615-127.365 0-230.616-103.25-230.616-230.615 0-127.365 103.251-230.614 230.616-230.614z"/><path fill="#E9F2F2" d="M256.001 39.59c119.518 0 216.407 96.891 216.407 216.409 0 119.518-96.889 216.409-216.407 216.409-119.52 0-216.409-96.891-216.409-216.409 0-119.518 96.889-216.409 216.409-216.409z"/><path fill="#999E9E" fill-rule="nonzero" d="M153.21 96.069c-2.804-4.879-1.12-11.112 3.759-13.916 4.879-2.804 11.112-1.12 13.916 3.759l9.171 15.886c2.803 4.879 1.12 11.112-3.759 13.916-4.879 2.804-11.113 1.12-13.916-3.759l-9.171-15.886zM423.862 338.85c4.879 2.825 6.545 9.076 3.719 13.956-2.825 4.879-9.076 6.544-13.956 3.719l-15.886-9.173c-4.879-2.826-6.544-9.077-3.719-13.956 2.826-4.879 9.077-6.545 13.956-3.719l15.886 9.173zM88.145 168.61c-4.879-2.825-6.545-9.077-3.72-13.956 2.826-4.879 9.077-6.544 13.956-3.719l15.89 9.177c4.879 2.825 6.545 9.076 3.719 13.955-2.825 4.879-9.077 6.545-13.956 3.72l-15.889-9.177zm355.774 74.923c5.631 0 10.197 4.566 10.197 10.197 0 5.631-4.566 10.197-10.197 10.197l-18.346-.002c-5.631 0-10.197-4.566-10.197-10.197 0-5.631 4.566-10.197 10.197-10.197l18.346.002zM68.083 263.929c-5.632 0-10.197-4.566-10.197-10.197 0-5.632 4.565-10.197 10.197-10.197l18.349.002c5.631 0 10.197 4.565 10.197 10.196 0 5.632-4.566 10.198-10.197 10.198l-18.349-.002zM413.62 150.932c4.879-2.826 11.13-1.16 13.956 3.719 2.826 4.879 1.16 11.13-3.719 13.955l-15.89 9.175c-4.879 2.826-11.13 1.16-13.956-3.719-2.825-4.879-1.16-11.13 3.719-13.956l15.89-9.174zM98.34 356.525c-4.88 2.803-11.112 1.12-13.916-3.759-2.804-4.879-1.12-11.113 3.759-13.916l15.888-9.169c4.879-2.804 11.112-1.121 13.916 3.758 2.804 4.88 1.12 11.113-3.76 13.917l-15.887 9.169zM341.117 85.872c2.825-4.879 9.077-6.545 13.956-3.719 4.879 2.825 6.544 9.077 3.719 13.956l-9.173 15.886c-2.825 4.879-9.077 6.544-13.956 3.719-4.879-2.826-6.545-9.077-3.719-13.956l9.173-15.886zM245.8 65.815c0-5.631 4.566-10.196 10.197-10.196 5.631 0 10.197 4.565 10.197 10.196l-.002 18.346c0 5.631-4.565 10.197-10.197 10.197-5.631 0-10.197-4.566-10.197-10.197l.002-18.346z"/><path fill-rule="nonzero" d="M161.111 292.408v-23.964l48.392-63.619c2.217-2.813 3.905-5.758 5.096-8.77 1.193-2.979 1.787-5.794 1.787-8.375v-.199c0-3.807-1.224-6.752-3.672-8.838-2.45-2.051-5.959-3.078-10.461-3.078-4.335 0-7.877 1.423-10.624 4.304-2.748 2.879-4.437 6.983-4.998 12.279v.1H159.39v-.1c.893-13.406 5.162-23.765 12.843-31.147 7.645-7.347 17.609-11.055 29.821-11.055 13.241 0 23.503 3.211 30.784 9.599 7.282 6.421 10.922 15.458 10.922 27.174v.1c0 6.388-1.125 12.745-3.376 19.034-2.217 6.322-5.328 12.014-9.334 17.111l-34.721 43.858h48.193v25.586h-83.411zm96.981-21.615v-24.459l43.46-94.833h30.056l-42.269 93.673h25.685v-35.682h26.58v35.682h11.055v25.619h-11.055v21.714h-26.58v-21.714h-56.932z"/><path fill="#5F5F5F" fill-rule="nonzero" d="M176.379 314.558c0-.261.092-.484.274-.668a.916.916 0 01.668-.274h11.153a.91.91 0 01.668.274.909.909 0 01.274.668v53.1c0 .261-.09.484-.274.668a.91.91 0 01-.668.274h-11.153a.916.916 0 01-.668-.274.916.916 0 01-.274-.668v-20.581c0-.261-.131-.391-.395-.391h-5.655c-.261 0-.392.13-.392.391v20.581a.913.913 0 01-.275.668.915.915 0 01-.668.274H157.84a.913.913 0 01-.667-.274.91.91 0 01-.276-.668v-53.1a.91.91 0 01.276-.668.913.913 0 01.667-.274h11.154c.262 0 .484.092.668.274a.913.913 0 01.275.668v20.502c0 .261.131.394.392.394h5.655c.264 0 .395-.133.395-.394v-20.502zm38.408 54.67c-5.079 0-9.124-1.465-12.136-4.398-3.01-2.933-4.516-6.885-4.516-11.861v-23.721c0-4.923 1.506-8.863 4.516-11.823 3.012-2.958 7.057-4.437 12.136-4.437 5.027 0 9.072 1.479 12.136 4.437 3.063 2.96 4.595 6.9 4.595 11.823v23.721c0 4.976-1.532 8.928-4.595 11.861-3.064 2.933-7.109 4.398-12.136 4.398zm0-11.153c1.152 0 2.056-.406 2.71-1.218.655-.812.983-1.924.983-3.338v-24.822c0-1.414-.328-2.526-.983-3.337-.654-.812-1.558-1.219-2.71-1.219-1.151 0-2.042.407-2.67 1.219-.629.811-.942 1.923-.942 3.337v24.822c0 1.414.313 2.526.942 3.338.628.812 1.519 1.218 2.67 1.218zm41.63 11.153c-3.246 0-6.101-.694-8.563-2.08-2.461-1.388-4.372-3.34-5.732-5.853-1.363-2.512-2.044-5.42-2.044-8.718v-38.019a.91.91 0 01.276-.668.91.91 0 01.667-.274h11.154c.262 0 .484.092.668.274a.913.913 0 01.275.668v39.276c0 1.256.302 2.277.904 3.063.602.785 1.401 1.178 2.395 1.178.996 0 1.793-.393 2.395-1.178.604-.786.904-1.807.904-3.063v-39.276c0-.261.092-.484.274-.668a.916.916 0 01.668-.274h11.155c.261 0 .484.092.666.274a.907.907 0 01.276.668v38.019c0 3.298-.681 6.206-2.043 8.718-1.36 2.513-3.271 4.465-5.733 5.853-2.461 1.386-5.315 2.08-8.562 2.08zm46.971-.628c-.575 0-.943-.261-1.099-.786L296.948 347c-.054-.21-.184-.314-.394-.314h-1.179c-.261 0-.391.13-.391.391v20.581a.917.917 0 01-.275.668.916.916 0 01-.668.274h-11.155a.909.909 0 01-.666-.274.91.91 0 01-.276-.668v-53.1a.91.91 0 01.276-.668.909.909 0 01.666-.274h16.89c3.037 0 5.732.72 8.089 2.159 2.356 1.442 4.177 3.458 5.46 6.05 1.283 2.592 1.924 5.538 1.924 8.836 0 2.933-.536 5.564-1.611 7.895-1.073 2.33-2.577 4.203-4.516 5.617a.594.594 0 00-.236.195c-.051.079-.051.171 0 .276l6.755 22.857.079.313c0 .525-.287.786-.863.786h-11.469zm-8.013-43.83c-.261 0-.391.131-.391.393v11.154c0 .261.13.392.391.392h2.201c1.413 0 2.54-.523 3.378-1.57.837-1.048 1.255-2.487 1.255-4.321 0-1.937-.418-3.43-1.255-4.477-.838-1.048-1.965-1.571-3.378-1.571h-2.201zm43.672 44.458c-3.194 0-5.996-.615-8.404-1.844-2.408-1.232-4.28-2.959-5.617-5.185-1.334-2.225-2.003-4.753-2.003-7.581v-2.434c0-.263.092-.486.276-.668a.905.905 0 01.667-.274h10.998c.261 0 .484.09.666.274a.905.905 0 01.277.668v1.807c0 1.257.3 2.251.901 2.984.604.734 1.376 1.1 2.318 1.1.943 0 1.716-.353 2.318-1.06.602-.707.902-1.611.902-2.71 0-1.206-.471-2.292-1.414-3.26-.942-.968-2.828-2.474-5.655-4.516-2.618-1.885-4.764-3.575-6.44-5.066-1.677-1.493-3.117-3.353-4.321-5.579-1.203-2.225-1.806-4.805-1.806-7.737 0-2.984.667-5.628 2.003-7.933 1.335-2.303 3.22-4.085 5.656-5.341 2.434-1.257 5.223-1.885 8.365-1.885 3.194 0 6.009.641 8.443 1.924 2.436 1.283 4.321 3.089 5.656 5.42 1.336 2.33 2.002 5.015 2.002 8.05v1.888c0 .261-.09.484-.274.666a.904.904 0 01-.668.276h-10.917a.909.909 0 01-.668-.276.91.91 0 01-.275-.666v-2.201c0-1.152-.315-2.095-.942-2.827-.63-.733-1.414-1.101-2.357-1.101-.942 0-1.703.368-2.279 1.101-.574.732-.863 1.701-.863 2.905 0 1.311.445 2.489 1.334 3.536.892 1.046 2.697 2.565 5.42 4.555 3.299 2.461 5.788 4.451 7.464 5.97 1.675 1.519 2.984 3.207 3.926 5.066.943 1.86 1.414 4.045 1.414 6.56 0 4.713-1.478 8.456-4.438 11.232-2.959 2.776-6.847 4.162-11.665 4.162z"/></svg>